#!OML:ASF F:\VICON\USERDATA\INSTALL\rory3\rory3.ASF
:FULLY-SPECIFIED
:DEGREES
1463
root 2.08762 17.6962 12.1698 -174.886 0.00409967 177.3
lowerback 2.57533 -0.196261 -4.04323
upperback -0.64242 -0.376222 1.09473
thorax -2.0731 -0.13033 3.41341
lowerneck -22.8417 -0.747008 -7.54038
upperneck 34.9528 5.10958 -0.986777
head 16.3083 1.772 2.15573
rclavicle 2.5345e-015 8.34896e-015
rhumerus -31.8734 -10.1911 -79.2218
rradius 34.4736
rwrist 20.159
rhand -22.1229 -0.169866
rfingers 7.12502
rthumb 4.2901 -30.1064
lclavicle 2.5345e-015 8.34896e-015
lhumerus -32.0907 4.87076 87.3826
lradius 34.7447
lwrist -12.6414
lhand -9.68212 27.0232
lfingers 7.12502
lthumb 16.2897 56.359
rfemur -14.8765 5.00086 19.4175
rtibia 33.8572
rfoot -20.8072 -0.71382
rtoes 15.0989
lfemur -12.1067 -0.604851 -23.2007
ltibia 22.8943
lfoot -13.1093 1.05378
ltoes -3.59289
1464
root 2.11762 17.6926 12.1868 -174.962 -0.322322 177.321
lowerback 2.73225 -0.267601 -4.07359
upperback -0.623927 -0.477611 1.15151
thorax -2.13261 -0.179257 3.49491
lowerneck -22.8694 -0.793273 -7.73014
upperneck 34.9638 5.06817 -0.851582
head 16.3123 1.74772 2.23898
rclavicle 9.34288e-015 -1.59028e-015
rhumerus -31.741 -9.63812 -79.3868
rradius 34.5376
rwrist 19.915
rhand -22.1427 -0.0711696
rfingers 7.12502
rthumb 4.27095 -30.0081
lclavicle 9.34288e-015 -1.59028e-015
lhumerus -32.1016 5.06215 87.5198
lradius 34.4674
lwrist -12.0591
lhand -10.1216 27.0876
lfingers 7.12502
lthumb 15.8665 56.4575
rfemur -14.7294 4.93126 19.6115
rtibia 33.7523
rfoot -21.0282 -0.878007
rtoes 15.8727
lfemur -12.1218 -0.75494 -23.0456
ltibia 22.8997
lfoot -12.9983 0.923443
ltoes -3.17581
1465
root 2.14873 17.6939 12.2033 -175.012 -0.573832 177.428
lowerback 2.81407 -0.310443 -4.03759
upperback -0.55964 -0.535124 1.21047
thorax -2.10686 -0.209986 3.53857
lowerneck -22.8042 -0.849 -7.79732
upperneck 34.8113 4.93552 -0.793767
head 16.2213 1.69088 2.24051
rclavicle 8.64713e-015 3.57812e-015
rhumerus -31.4341 -9.29796 -79.5622
rradius 34.4357
rwrist 19.8299
rhand -22.2414 0.174926
rfingers 7.12502
rthumb 4.17568 -29.7639
lclavicle 8.64713e-015 3.57812e-015
lhumerus -31.9401 5.33135 87.5988
lradius 34.0063
lwrist -11.8071
lhand -10.6237 26.614
lfingers 7.12502
lthumb 15.383 56.0217
rfemur -14.6271 4.95892 19.8913
rtibia 33.6501
rfoot -21.2034 -1.08525
rtoes 16.3358
lfemur -12.1886 -0.67147 -22.8148
ltibia 22.9235
lfoot -12.8653 0.718392
ltoes -3.41615
1466
root 2.17797 17.6936 12.2185 -175.038 -0.803374 177.279
lowerback 2.90252 -0.328861 -4.22584
upperback -0.514209 -0.570055 1.17168
thorax -2.10539 -0.226062 3.60681
lowerneck -22.6663 -0.908415 -7.71256
upperneck 34.5656 4.75186 -0.853156
head 16.0773 1.61782 2.15094
rclavicle -2.13694e-015 -1.19271e-014
rhumerus -31.2112 -9.08711 -79.7387
rradius 34.3891
rwrist 19.8564
rhand -22.4807 0.251172
rfingers 7.12502
rthumb 3.94462 -29.6921
lclavicle -2.13694e-015 -1.19271e-014
lhumerus -31.6782 5.62708 87.585
lradius 33.415
lwrist -12.0806
lhand -10.6571 26.39
lfingers 7.12502
lthumb 15.3508 55.8002
rfemur -14.5894 5.03605 19.8797
rtibia 33.592
rfoot -21.3777 -1.50504
rtoes 15.6162
lfemur -12.2367 -0.693244 -22.8884
ltibia 22.9381
lfoot -12.8062 0.655081
ltoes -3.96
1467
root 2.20503 17.6889 12.2303 -175.1 -1.05674 177.198
lowerback 2.93948 -0.374378 -4.34335
upperback -0.449251 -0.635342 1.20465
thorax -2.05162 -0.259714 3.71018
lowerneck -22.574 -0.981483 -7.79034
upperneck 34.4036 4.64257 -0.893627
head 15.9816 1.55763 2.11714
rclavicle -2.98177e-016 2.26615e-014
rhumerus -31.0445 -8.7521 -79.8234
rradius 34.4153
rwrist 19.9726
rhand -22.7696 0.169991
rfingers 7.12502
rthumb 3.66558 -29.7782
lclavicle -2.98177e-016 2.26615e-014
lhumerus -31.4033 5.90207 87.6335
lradius 32.7915
lwrist -12.3003
lhand -10.8529 26.3721
lfingers 7.12502
lthumb 15.1622 55.7967
rfemur -14.519 5.18716 19.9513
rtibia 33.5867
rfoot -21.5786 -1.99353
rtoes 14.9117
lfemur -12.1924 -0.89259 -22.8748
ltibia 22.9803
lfoot -12.8605 0.672172
ltoes -4.02103
1468
root 2.22128 17.6835 12.2496 -175.347 -1.30727 177.254
lowerback 3.25526 -0.446408 -4.11166
upperback -0.363855 -0.735668 1.21184
thorax -2.13381 -0.31258 3.59477
lowerneck -22.5847 -1.01137 -7.92004
upperneck 34.4634 4.63381 -0.803496
head 16.0085 1.55026 2.17875
rclavicle 1.05853e-014 1.27222e-014
rhumerus -30.7873 -8.37507 -79.98
rradius 34.2558
rwrist 19.9572
rhand -22.9781 0.54837
rfingers 7.12502
rthumb 3.46421 -29.4032
lclavicle 1.05853e-014 1.27222e-014
lhumerus -31.2489 6.30623 87.5461
lradius 32.3008
lwrist -12.6144
lhand -10.7772 26.4825
lfingers 7.12502
lthumb 15.2351 55.9015
rfemur -14.2925 5.09516 20.1252
rtibia 33.5815
rfoot -21.6434 -2.2279
rtoes 14.2853
lfemur -12.0045 -1.15264 -22.7351
ltibia 23.0268
lfoot -12.7982 0.696032
ltoes -3.58443
1469
root 2.21802 17.6734 12.2842 -175.853 -1.46614 177.308
lowerback 4.1216 -0.493958 -3.52228
upperback -0.365903 -0.810334 1.06631
thorax -2.62526 -0.348024 3.12809
lowerneck -22.3414 -1.02002 -7.92445
upperneck 34.5998 4.6257 -0.720337
head 16.016 1.57389 2.21753
rclavicle 4.17448e-015 3.97569e-016
rhumerus -30.6288 -8.1356 -80.2118
rradius 33.9061
rwrist 20.0783
rhand -22.926 0.74174
rfingers 7.12502
rthumb 3.51461 -29.209
lclavicle 4.17448e-015 3.97569e-016
lhumerus -31.2792 6.67003 87.2759
lradius 31.784
lwrist -13.0704
lhand -10.472 26.4299
lfingers 7.12502
lthumb 15.5291 55.8263
rfemur -13.8753 4.47557 20.1836
rtibia 33.5288
rfoot -21.3806 -1.84814
rtoes 14.3417
lfemur -11.6836 -1.50499 -22.706
ltibia 23.1805
lfoot -12.7762 0.975698
ltoes -3.09158
1470
root 2.25509 17.6869 12.2991 -175.024 -1.12109 177.486
lowerback 3.27956 -0.421122 -3.47384
upperback -0.699147 -0.682138 1.10168
thorax -2.50588 -0.280797 3.12153
lowerneck -21.7674 -1.02744 -7.94462
upperneck 34.6038 4.58582 -0.639381
head 15.8818 1.59744 2.24256
rclavicle 6.90777e-015 -1.11319e-014
rhumerus -30.625 -8.03549 -80.3449
rradius 33.6368
rwrist 20.5896
rhand -22.5738 0.710384
rfingers 7.12502
rthumb 3.85466 -29.2345
lclavicle 6.90777e-015 -1.11319e-014
lhumerus -31.4519 7.11292 86.9955
lradius 31.288
lwrist -13.6714
lhand -10.2195 26.397
lfingers 7.12502
lthumb 15.7722 55.7744
rfemur -14.8407 4.84847 20.4071
rtibia 33.4134
rfoot -21.1976 -1.97487
rtoes 14.2637
lfemur -12.7751 -1.17995 -22.389
ltibia 23.4566
lfoot -12.8724 1.04244
ltoes -2.63258
1471
root 2.28167 17.693 12.3149 -174.71 -1.13439 177.681
lowerback 2.93159 -0.420402 -3.29262
upperback -0.788675 -0.662719 1.16476
thorax -2.40505 -0.274408 3.08006
lowerneck -21.4552 -1.07651 -8.06068
upperneck 34.6018 4.50569 -0.518079
head 15.8049 1.58217 2.29533
rclavicle -9.44227e-016 -1.74931e-014
rhumerus -30.4796 -7.89423 -80.4548
rradius 33.4509
rwrist 20.7975
rhand -22.6104 0.63549
rfingers 7.12502
rthumb 3.81929 -29.31
lclavicle -9.44227e-016 -1.74931e-014
lhumerus -31.5145 7.52549 86.8117
lradius 30.955
lwrist -14.2493
lhand -10.0118 26.5864
lfingers 7.12502
lthumb 15.9723 55.9479
rfemur -15.178 5.00729 20.6745
rtibia 33.2753
rfoot -21.1615 -2.11887
rtoes 14.5818
lfemur -13.3717 -1.3015 -22.0792
ltibia 23.8139
lfoot -12.8683 1.27444
ltoes -2.54295
1472
root 2.30159 17.6907 12.331 -174.683 -1.16191 177.895
lowerback 2.89407 -0.425623 -3.0204
upperback -0.745132 -0.657357 1.23121
thorax -2.34138 -0.277517 2.99425
lowerneck -21.5508 -1.12651 -8.12705
upperneck 34.7518 4.48779 -0.478153
head 15.9004 1.56932 2.32832
rclavicle -4.82053e-015 1.78906e-014
rhumerus -30.1971 -7.55911 -80.6174
rradius 33.284
rwrist 20.6365
rhand -22.8229 0.511131
rfingers 7.12502
rthumb 3.61417 -29.438
lclavicle -4.82053e-015 1.78906e-014
lhumerus -31.425 7.95077 86.6361
lradius 30.5508
lwrist -14.8923
lhand -10.0721 26.6036
lfingers 7.12502
lthumb 15.9142 55.9698
rfemur -15.1774 5.01144 20.9498
rtibia 33.1014
rfoot -21.0438 -2.00936
rtoes 14.9442
lfemur -13.676 -1.38468 -21.7772
ltibia 24.1967
lfoot -12.8728 1.502
ltoes -2.91366
1473
root 2.31993 17.6872 12.3447 -174.693 -1.02493 178.107
lowerback 2.91587 -0.341479 -2.68666
upperback -0.745653 -0.533793 1.22996
thorax -2.36587 -0.220534 2.79933
lowerneck -21.4917 -1.17805 -8.07322
upperneck 34.8965 4.42669 -0.466564
head 15.9618 1.55904 2.31891
rclavicle 6.4605e-015 -4.37326e-015
rhumerus -30.1137 -7.52584 -80.6959
rradius 33.2296
rwrist 20.8457
rhand -22.5718 0.365127
rfingers 7.12502
rthumb 3.85663 -29.5797
lclavicle 6.4605e-015 -4.37326e-015
lhumerus -31.4313 8.25533 86.41
lradius 30.1454
lwrist -15.4183
lhand -10.0577 26.6753
lfingers 7.12502
lthumb 15.9281 56.0403
rfemur -15.1876 4.95678 21.2091
rtibia 32.9682
rfoot -20.7893 -1.78398
rtoes 14.7171
lfemur -13.9247 -1.29414 -21.4891
ltibia 24.5847
lfoot -12.9382 1.68326
ltoes -2.93543
1474
root 2.33786 17.6864 12.3569 -174.687 -1.02122 178.262
lowerback 3.0467 -0.309146 -2.44034
upperback -0.863922 -0.485389 1.23113
thorax -2.56629 -0.195804 2.66161
lowerneck -21.3487 -1.22444 -7.96293
upperneck 35.1491 4.41427 -0.519498
head 16.0598 1.57651 2.28655
rclavicle 9.93923e-016 -2.38542e-015
rhumerus -30.2157 -7.49944 -80.7109
rradius 33.1213
rwrist 21.2661
rhand -22.2865 0.268095
rfingers 7.12502
rthumb 4.13211 -29.6716
lclavicle 9.93923e-016 -2.38542e-015
lhumerus -31.6931 8.75442 86.0982
lradius 29.8524
lwrist -15.9918
lhand -9.74455 26.6979
lfingers 7.12502
lthumb 16.2296 56.0386
rfemur -15.2188 4.84769 21.4331
rtibia 32.8674
rfoot -20.5826 -1.75944
rtoes 14.4052
lfemur -14.1989 -1.3147 -21.2531
ltibia 24.9652
lfoot -13.0695 1.84384
ltoes -3.20217
